<svg width="438" height="421" viewBox="0 0 438 421" fill="none" xmlns="http://www.w3.org/2000/svg">
<path d="M247.906 202.469L232.594 217.781L217.281 202.5L186.703 171.922L201.969 156.656L232.547 187.234L308.969 110.766L324.281 126.031L247.906 202.469Z" fill="#008000"/>
<path d="M194.594 295.188H324.328V316.797H194.594V295.188Z" fill="#C00000"/>
<path d="M0 49.8281V420.281H389.203V49.8281H0ZM366.828 400.594L21.7813 399.687L22.1406 71.9687H367.094L366.828 400.594ZM64.8594 131.25V217.719H151.328V131.25H64.8594ZM129.688 196.078H86.4687V152.859H129.688V196.078ZM64.8281 262.016V348.484H151.297V262.062L64.8281 262.016ZM129.688 326.922H86.4687V283.719H129.688V326.922ZM437.5 0V370.141H415.141L414.828 22.6406L64.8281 22.1875V0H437.5Z" fill="#CFCFCF"/>
</svg>
